:SAMPLES-PER-SECOND 30
:FULLY-SPECIFIED
:DEGREES
123
root  -30.7504 40.4275 3.7518 165.078 70.4815 159.883
RightUpLeg  9.94299 -13.1951 -9.93184
RightLeg  10.7072 -25.1578 2.71518
RightFoot  -19.4767 0.0848481 3.05045
RightToes  0.00048216 0.542163 -0.142577
Spine  15.5227 5.53347 15.9249
Spine1  8.5377 12.1539 -16.9571
HEad  -51.5641 -6.3026 -7.16926
LeftShoulder1  7.19698 -12.8169 -37.9432
LeftArm  -9.97482 41.9005 -36.0263
LeftForeArm  52.5245 -3.19943 -4.31826
LeftHand  -0.25398 0.0180481 5.50724
RightShoulder  6.12751 11.6153 34.5647
RightArm  8.83234 18.704 48.9609
RightForeArm  32.1701 3.35068 9.9767
RightHand  -0.967265 1.58935 -16.189
LeftUpLeg  -31.5065 14.0956 -17.515
LeftLeg  33.0177 -3.89649 -2.38626
LeftFoot  -1.85587 0.545199 -6.4378
LeftToes  1.0625e-005 4.65855e-005 -8.18498e-006
124
root  -29.5186 40.1468 3.81101 165.363 70.6791 160.776
RightUpLeg  12.9778 -13.0092 -9.84027
RightLeg  9.92645 -24.5278 3.36028
RightFoot  -19.0036 0.0508258 2.68249
RightToes  0.00048216 0.542163 -0.142577
Spine  15.0072 6.09369 15.4449
Spine1  9.30177 12.6999 -16.6232
HEad  -51.9478 -7.01 -7.48705
LeftShoulder1  6.83083 -12.4446 -36.728
LeftArm  -11.2975 50.2943 -39.5655
LeftForeArm  41.6839 -2.93183 -4.78461
LeftHand  -0.25398 0.0180481 5.50724
RightShoulder  5.76836 10.7111 34.617
RightArm  0.329977 11.0156 40.5525
RightForeArm  26.7646 2.69718 8.04024
RightHand  -1.13272 2.36178 -17.1173
LeftUpLeg  -28.5181 12.0661 -18.5264
LeftLeg  23.9378 -5.86601 -2.53957
LeftFoot  -3.28267 0.509925 -6.99364
LeftToes  1.0625e-005 4.65855e-005 -8.18498e-006
125
root  -28.1667 39.7792 3.85739 165.609 70.6402 162.391
RightUpLeg  16.1801 -13.3117 -9.87155
RightLeg  11.2878 -22.9935 3.23465
RightFoot  -18.9579 -0.00403713 1.8684
RightToes  0.00048216 0.542163 -0.142577
Spine  14.8058 6.36108 15.1077
Spine1  9.77814 13.0419 -16.5086
HEad  -50.9154 -7.65089 -6.89989
LeftShoulder1  6.58047 -12.5201 -35.0054
LeftArm  -14.4498 56.667 -42.153
LeftForeArm  28.8683 -1.20665 -4.27351
LeftHand  -0.25398 0.0180481 5.50724
RightShoulder  5.30101 9.94191 33.4791
RightArm  -7.14173 2.63523 34.3697
RightForeArm  19.2777 1.56576 6.28299
RightHand  -1.14594 2.52623 -16.9483
LeftUpLeg  -24.4762 8.90596 -18.0706
LeftLeg  17.3224 -5.96003 -1.83527
LeftFoot  -4.79601 0.479717 -7.80522
LeftToes  1.0625e-005 4.65855e-005 -8.18498e-006
126
root  -26.6492 39.4177 3.89031 165.56 71.0198 163.61
RightUpLeg  19.1864 -15.2809 -10.729
RightLeg  13.504 -19.2668 2.8247
RightFoot  -18.6926 -0.0681751 0.865819
RightToes  0.00048216 0.542163 -0.142577
Spine  14.0576 6.56236 13.9967
Spine1  10.277 13.172 -16.1932
HEad  -49.5191 -7.40593 -5.72603
LeftShoulder1  6.3675 -12.5149 -33.7037
LeftArm  -15.2422 60.1523 -42.4077
LeftForeArm  31.0054 -1.0669 -3.88785
LeftHand  -0.25398 0.0180481 5.50724
RightShoulder  4.77179 9.15034 31.7622
RightArm  -11.8117 -4.52241 29.829
RightForeArm  11.3026 -0.180597 5.09061
RightHand  -0.987778 1.62691 -16.4777
LeftUpLeg  -20.7408 7.20269 -17.3936
LeftLeg  13.737 -4.63135 -1.57684
LeftFoot  -4.39343 0.33514 -5.28176
LeftToes  1.0625e-005 4.65855e-005 -8.18498e-006
127
root  -25.006 39.1091 3.89562 164.994 71.4546 163.491
RightUpLeg  21.8523 -21.8627 -14.5398
RightLeg  16.4518 -9.58091 2.47992
RightFoot  -16.9744 -0.0170015 1.96925
RightToes  0.00048216 0.542163 -0.142577
Spine  12.3983 6.51709 11.7383
Spine1  10.7424 12.7648 -15.5955
HEad  -48.4935 -6.52643 -4.57908
LeftShoulder1  6.1391 -12.1127 -33.2718
LeftArm  -11.4158 60.347 -39.7999
LeftForeArm  43.2484 -1.72942 -4.67377
LeftHand  -0.25398 0.0180481 5.50724
RightShoulder  4.17468 8.20024 29.6954
RightArm  -13.8375 -9.86701 26.3441
RightForeArm  5.54427 -0.898132 4.43161
RightHand  -0.995889 1.23064 -17.483
LeftUpLeg  -18.6739 5.60251 -17.2873
LeftLeg  13.8127 -1.68337 -1.11522
LeftFoot  -2.55202 -0.144278 2.02955
LeftToes  1.0625e-005 4.65855e-005 -8.18498e-006
128
root  -23.4076 38.8703 3.88462 164.08 71.5894 162.558
RightUpLeg  22.7113 -30.0116 -19.7445
RightLeg  22.162 4.233 2.26739
RightFoot  -12.6802 -0.0259123 6.42063
RightToes  0.00048216 0.542163 -0.142577
Spine  10.9485 5.89461 9.13458
Spine1  10.6494 11.646 -15.2078
HEad  -48.1965 -5.61764 -3.72629
LeftShoulder1  6.0006 -11.6407 -33.5783
LeftArm  -6.68369 57.9251 -36.1317
LeftForeArm  52.4008 -1.80284 -5.71257
LeftHand  -0.25398 0.0180481 5.50724
RightShoulder  3.61439 7.26201 27.5536
RightArm  -14.1131 -13.6762 23.3774
RightForeArm  1.62883 0.492103 4.38128
RightHand  -1.39086 2.5836 -20.2709
LeftUpLeg  -18.3432 3.43135 -17.918
LeftLeg  17.3004 1.37764 0.827498
LeftFoot  -2.43739 -0.723464 9.64791
LeftToes  1.0625e-005 4.65855e-005 -8.18498e-006
129
root  -22.0138 38.7224 3.89938 161.914 72.1666 160.653
RightUpLeg  17.7892 -24.7889 -18.627
RightLeg  31.4742 6.73805 4.09948
RightFoot  -4.63268 -0.88106 13.6664
RightToes  0.00048216 0.542163 -0.142577
Spine  10.9671 5.01544 6.83163
Spine1  10.0694 10.387 -15.3068
HEad  -48.4614 -4.80341 -3.05661
LeftShoulder1  6.01564 -11.4763 -34.1064
LeftArm  -4.79896 53.6932 -33.4208
LeftForeArm  53.114 -1.63026 -5.94513
LeftHand  -0.25398 0.0180481 5.50724
RightShoulder  3.24398 6.63612 25.9191
RightArm  -13.5888 -15.6639 20.2725
RightForeArm  -2.03566 2.90215 4.80652
RightHand  -1.8893 4.47826 -22.3499
LeftUpLeg  -18.189 0.0468575 -17.5354
LeftLeg  21.8705 5.66179 2.81602
LeftFoot  -5.26065 -0.638031 12.3716
LeftToes  1.0625e-005 4.65855e-005 -8.18498e-006
130
root  -20.8023 38.678 3.95605 156.391 74.0229 155.871
RightUpLeg  10.8644 -17.0913 -17.5964
RightLeg  42.6546 7.56295 7.10986
RightFoot  5.81714 -3.21056 21.341
RightToes  0.00048216 0.542163 -0.142577
Spine  11.9895 4.53783 4.31516
Spine1  9.83858 9.54579 -15.3895
HEad  -48.3757 -3.67943 -2.50775
LeftShoulder1  6.09193 -11.4911 -34.5699
LeftArm  -5.28817 47.966 -31.6967
LeftForeArm  49.872 -2.32752 -5.56175
LeftHand  -0.25398 0.0180481 5.50724
RightShoulder  3.10637 6.48564 24.9797
RightArm  -13.3194 -15.0883 17.1025
RightForeArm  -5.4064 4.56392 5.25426
RightHand  -2.00802 5.12924 -22.2653
LeftUpLeg  -16.9655 1.06461 -17.2608
LeftLeg  24.7233 6.87168 3.76909
LeftFoot  -8.92095 -0.176121 10.6374
LeftToes  1.0625e-005 4.65855e-005 -8.18498e-006
131
root  -19.6011 38.7366 3.99989 148.473 76.565 148.997
RightUpLeg  3.88386 -10.6144 -17.4988
RightLeg  52.8896 6.48002 8.68171
RightFoot  13.5797 -5.49 25.1084
RightToes  0.00048216 0.542163 -0.142577
Spine  12.6828 4.29353 1.66377
Spine1  10.2148 8.69892 -14.7529
HEad  -46.9658 -1.92525 -2.1691
LeftShoulder1  6.14526 -11.3892 -35.1954
LeftArm  -6.07637 40.8166 -29.9047
LeftForeArm  44.4096 -3.33671 -5.34025
LeftHand  -0.25398 0.0180481 5.50724
RightShoulder  3.08397 6.68047 24.1244
RightArm  -13.8471 -12.0769 14.9803
RightForeArm  -8.4754 5.11317 5.51765
RightHand  -2.0498 5.29083 -22.3672
LeftUpLeg  -14.3658 4.71714 -16.7626
LeftLeg  25.186 6.44862 3.64682
LeftFoot  -11.4585 0.0816763 8.53728
LeftToes  1.0625e-005 4.65855e-005 -8.18498e-006
132
root  -18.3281 38.9877 3.96283 144.279 78.5027 145.855
RightUpLeg  -2.24986 -7.46836 -17.1853
RightLeg  59.6814 4.11159 7.07035
RightFoot  15.5494 -5.31511 22.3733
RightToes  0.00048216 0.542163 -0.142577
Spine  12.7501 3.43538 0.187768
Spine1  10.4914 7.18739 -13.3294
HEad  -44.1427 0.0745095 -1.92361
LeftShoulder1  6.21912 -11.2515 -36.059
LeftArm  -6.77934 32.285 -27.3153
LeftForeArm  36.2486 -3.59067 -5.32985
LeftHand  -0.25398 0.0180481 5.50724
RightShoulder  3.02431 6.83568 23.0326
RightArm  -14.8876 -8.13172 14.5463
RightForeArm  -11.3517 5.74592 5.74163
RightHand  -2.50353 6.53584 -24.3795
LeftUpLeg  -10.4909 7.33331 -15.4427
LeftLeg  23.4909 6.12826 3.27297
LeftFoot  -12.4705 0.15624 8.15025
LeftToes  1.0625e-005 4.65855e-005 -8.18498e-006
133
root  -17.0548 39.3959 3.8809 147.946 79.6739 150.279
RightUpLeg  -7.75736 -7.28755 -15.8334
RightLeg  62.6726 1.70711 3.08013
RightFoot  12.5736 -3.22232 15.4548
RightToes  0.00048216 0.542163 -0.142577
Spine  12.7237 2.11265 0.258866
Spine1  10.2731 5.37957 -11.7498
HEad  -40.5911 1.52144 -1.4254
LeftShoulder1  6.35683 -11.3509 -36.6867
LeftArm  -8.43195 22.3478 -24.0221
LeftForeArm  27.7358 -3.37097 -5.09575
LeftHand  -0.25398 0.0180481 5.50724
RightShoulder  2.94266 6.72209 22.5358
RightArm  -15.8944 -5.04089 14.8492
RightForeArm  -13.3372 7.88188 6.06438
RightHand  -3.0177 8.02504 -26.1279
LeftUpLeg  -6.08074 7.97154 -13.1661
LeftLeg  20.3984 6.15467 2.61873
LeftFoot  -12.7011 0.173595 8.17089
LeftToes  1.0625e-005 4.65855e-005 -8.18498e-006
134
root  -15.8012 39.8 3.82411 155.685 80.6229 158.514
RightUpLeg  -12.8757 -7.70728 -13.4937
RightLeg  62.1759 -0.26134 -1.0458
RightFoot  8.97734 -1.5166 8.87309
RightToes  0.00048216 0.542163 -0.142577
Spine  12.6737 1.14785 0.890449
Spine1  9.99064 4.04511 -10.2655
HEad  -36.9738 2.14824 -0.590662
LeftShoulder1  6.48916 -11.6374 -36.7509
LeftArm  -11.5021 11.2773 -20.6286
LeftForeArm  21.8999 -3.18684 -4.52473
LeftHand  -0.25398 0.0180481 5.50724
RightShoulder  2.97613 6.55959 23.3755
RightArm  -16.0105 -3.48547 14.8119
RightForeArm  -14.6598 12.093 6.28235
RightHand  -2.87937 7.74968 -25.4223
LeftUpLeg  -1.66217 7.22498 -10.116
LeftLeg  16.7943 6.9737 1.0718
LeftFoot  -12.6976 0.165986 7.54294
LeftToes  1.0625e-005 4.65855e-005 -8.18498e-006
135
root  -14.544 40.0671 3.80468 162.468 81.5735 165.852
RightUpLeg  -17.1417 -7.59737 -10.9953
RightLeg  58.4157 -1.67178 -3.40448
RightFoot  7.26512 -0.776408 5.06204
RightToes  0.00048216 0.542163 -0.142577
Spine  12.6109 0.720333 0.741252
Spine1  10.0885 3.06494 -8.36049
HEad  -33.6591 2.4322 0.255272
LeftShoulder1  6.4936 -11.7853 -36.3764
LeftArm  -15.6302 -0.00785701 -17.6142
LeftForeArm  18.9606 -3.28036 -3.78935
LeftHand  -0.25398 0.0180481 5.50724
RightShoulder  3.15033 6.69 24.7725
RightArm  -14.4356 -2.9927 15.0508
RightForeArm  -16.6175 17.8455 5.95475
RightHand  -2.31774 6.09268 -23.5131
LeftUpLeg  2.65555 5.8665 -7.31654
LeftLeg  13.4135 8.52721 -0.845366
LeftFoot  -12.6212 0.151958 6.79175
LeftToes  1.0625e-005 4.65855e-005 -8.18498e-006
136
root  -13.293 40.1708 3.79861 166.613 82.1578 170.828
RightUpLeg  -19.8347 -7.77395 -8.98358
RightLeg  51.7985 -2.54778 -3.85424
RightFoot  4.72739 -0.454737 3.44253
RightToes  0.00048216 0.542163 -0.142577
Spine  12.9429 0.373483 -0.629726
Spine1  10.4529 1.83176 -5.77496
HEad  -30.9159 2.85549 0.836316
LeftShoulder1  6.29925 -11.6764 -35.4224
LeftArm  -20.4648 -10.4579 -15.0668
LeftForeArm  17.127 -4.27398 -3.04589
LeftHand  -0.25398 0.0180481 5.50724
RightShoulder  3.32904 7.0934 25.3138
RightArm  -13.7554 -3.06327 16.9107
RightForeArm  -16.489 23.7859 5.86971
RightHand  -2.06233 5.16765 -22.768
LeftUpLeg  6.70222 4.67114 -5.64456
LeftLeg  11.0504 9.84042 -1.97977
LeftFoot  -12.768 0.155901 6.33884
LeftToes  1.0625e-005 4.65855e-005 -8.18498e-006
